<?xml version="1.0" encoding="utf-8"?>
<!-- Generator: Adobe Illustrator 17.0.2, SVG Export Plug-In . SVG Version: 6.00 Build 0)  -->
<!DOCTYPE svg PUBLIC "-//W3C//DTD SVG 1.1//EN" "http://www.w3.org/Graphics/SVG/1.1/DTD/svg11.dtd">
<svg version="1.1" xmlns="http://www.w3.org/2000/svg" xmlns:xlink="http://www.w3.org/1999/xlink" x="0px" y="0px" width="500px"
	 height="500px" viewBox="0 0 500 500" enable-background="new 0 0 500 500" xml:space="preserve">
<g id="Layer_1">
	<g display="none">
		<path display="inline" d="M442.03-624.466h1.831l2.289-9.138h-0.439c-1.431,0-1.679,0.458-3.071,3.72h-1.812l1.335-5.303h12.228
			l-1.335,5.303h-1.545c0.057-3.243-0.019-3.72-1.469-3.72h-0.286l-2.289,9.138h1.908l-0.458,1.831h-7.344L442.03-624.466z"/>
		<path display="inline" d="M459.256-624.294c0-1.583,1.278-3.777,1.278-4.807c0-0.324-0.21-0.515-0.573-0.515
			c-0.667,0-2.003,0.553-3.739,6.982h-3.205l3.033-11.465h-1.259l0.439-1.736h4.483l-2.499,7.917l0.153,0.057
			c1.355-2.995,2.862-4.006,4.388-4.006c1.164,0,2.022,0.706,2.022,1.946c0,1.793-1.545,4.33-1.545,5.189
			c0,0.286,0.153,0.362,0.305,0.362c0.305,0,0.668-0.248,1.316-1.812l1.049,0.381c-0.763,2.117-2.003,3.377-3.605,3.377
			C459.961-622.425,459.256-623.245,459.256-624.294z"/>
		<path display="inline" d="M468.641-626.316c0,1.755,0.954,2.213,1.87,2.213c0.782,0,1.583-0.343,2.499-1.374l0.858,0.801
			c-1.049,1.221-2.346,2.251-4.445,2.251c-2.461,0-4.025-1.392-4.025-3.644c0-2.995,2.442-5.799,5.914-5.799
			c2.06,0,3.224,0.973,3.224,2.347C474.536-627.747,472.819-626.354,468.641-626.316z M468.737-627.366
			c2.327-0.076,2.919-1.278,2.919-2.213c0-0.63-0.286-0.992-0.744-0.992C469.862-630.57,469.004-628.93,468.737-627.366z"/>
	</g>
	<g display="none">
		<g display="inline">
			<path fill="#6D6E71" d="M1070.811-340.417h5.141l6.426-25.653h-1.231c-4.016,0-4.713,1.285-8.623,10.444h-5.088l3.749-14.889
				h34.329l-3.749,14.889h-4.338c0.161-9.105-0.054-10.444-4.124-10.444h-0.803l-6.427,25.653h5.356l-1.286,5.141h-20.618
				L1070.811-340.417z"/>
			<path fill="#6D6E71" d="M1119.17-339.935c0-4.445,3.588-10.604,3.588-13.496c0-0.91-0.59-1.446-1.607-1.446
				c-1.874,0-5.623,1.553-10.496,19.601h-8.998l8.515-32.187h-3.535l1.232-4.874h12.585l-7.016,22.226l0.429,0.161
				c3.803-8.408,8.034-11.247,12.318-11.247c3.267,0,5.677,1.982,5.677,5.463c0,5.034-4.338,12.157-4.338,14.567
				c0,0.803,0.429,1.018,0.857,1.018c0.857,0,1.875-0.696,3.696-5.088l2.945,1.071c-2.142,5.945-5.623,9.479-10.122,9.479
				C1121.151-334.687,1119.17-336.989,1119.17-339.935z"/>
			<path fill="#6D6E71" d="M1145.52-345.612c0,4.927,2.678,6.213,5.249,6.213c2.195,0,4.445-0.964,7.016-3.856l2.41,2.25
				c-2.946,3.428-6.587,6.319-12.478,6.319c-6.909,0-11.3-3.909-11.3-10.229c0-8.408,6.855-16.281,16.602-16.281
				c5.785,0,9.051,2.732,9.051,6.588C1162.069-349.628,1157.248-345.719,1145.52-345.612z M1145.788-348.558
				c6.534-0.214,8.194-3.588,8.194-6.212c0-1.767-0.803-2.785-2.088-2.785C1148.947-357.555,1146.538-352.949,1145.788-348.558z"/>
		</g>
		<g display="inline">
			<path fill="#F43D00" d="M1049.787-252.683h8.008l11.756-47.232h-8.007l2.433-9.73h32.738c18.852,0,23.717,6.69,23.717,13.582
				c0,8.311-6.182,16.014-21.995,17.94l-0.202,0.709c11.25,1.622,16.418,6.588,16.418,13.785c0,4.662-1.52,8.919-4.864,12.365
				c-5.068,5.068-14.089,8.311-28.177,8.311h-34.258L1049.787-252.683z M1081.512-252.683c9.73,0,15.102-4.054,15.102-12.062
				c0-5.067-2.839-7.804-11.352-7.804h-4.461l-4.966,19.866H1081.512z M1088.607-282.279c8.919,0,13.378-4.459,13.378-10.642
				c0-4.561-2.33-6.994-9.629-6.994h-4.662l-4.459,17.636H1088.607z"/>
			<path fill="#F43D00" d="M1172.933-271.94c0,16.521-14.494,30.102-29.9,30.102c-12.973,0-22.196-8.311-22.196-20.067
				c0-16.521,14.494-30.103,29.899-30.103C1163.709-292.009,1172.933-283.698,1172.933-271.94z M1151.04-285.015
				c-8.514,0-12.973,21.589-12.973,29.089c0,6.081,2.433,7.095,4.561,7.095c8.616,0,13.075-21.589,13.075-29.089
				C1155.702-284.002,1153.27-285.015,1151.04-285.015z"/>
			<path fill="#F43D00" d="M1179.214-259.677l11.758-44.19h-6.69l2.332-9.224h23.818l-13.885,49.563
				c-0.507,1.723-2.433,7.601-2.433,9.426c0,1.52,0.812,1.926,1.622,1.926c1.622,0,3.548-1.317,6.994-9.629l5.574,2.026
				c-4.054,11.25-10.439,17.94-19.054,17.94c-6.69,0-11.25-3.648-11.25-10.337C1177.998-253.899,1178.404-256.636,1179.214-259.677z
				"/>
			<path fill="#F43D00" d="M1271.65-259.778c-3.749,11.656-9.73,17.94-18.041,17.94c-6.182,0-10.337-3.345-10.337-10.034
				c0-1.216,0.101-1.925,0.203-2.635l-0.812-0.304c-4.053,8.92-9.527,12.973-16.318,12.973c-10.642,0-15.202-8.108-15.202-17.027
				c0-10.44,4.662-21.285,10.236-26.86c4.359-4.358,8.311-6.284,14.191-6.284c6.487,0,10.54,4.662,12.263,9.021l5.474-20.879h-6.69
				l2.33-9.224h23.617l-14.088,54.327c-0.507,1.926-0.71,3.142-0.71,4.155c0,1.825,1.013,2.433,1.926,2.433
				c1.825,0,3.749-1.723,6.385-9.629L1271.65-259.778z M1245.703-276.704c0-5.575-2.533-6.487-4.561-6.487
				c-7.297,0-12.263,15.811-12.263,24.63c0,5.168,2.127,6.487,4.256,6.487C1240.129-252.074,1245.703-267.785,1245.703-276.704z"/>
		</g>
		<g display="inline">
			<path fill="#6D6E71" d="M1288.271-252.683h8.008l11.756-47.232h-8.007l2.433-9.73h34.967c17.738,0,23.819,7.095,23.819,14.595
				c0,10.339-8.11,17.534-26.15,18.65l-0.203,0.607c11.148,1.317,14.898,5.981,14.898,10.946c0,3.243-1.214,7.298-1.214,9.63
				c0,2.026,1.214,2.533,2.229,2.533c1.522,0,2.736-1.114,5.168-6.081l5.475,2.838c-3.953,8.818-8.313,14.494-17.738,14.494
				c-8.108,0-13.378-3.953-13.378-10.642c0-4.461,1.925-9.427,1.925-14.191c0-3.546-2.838-5.574-8.817-5.574h-4.258l-4.764,19.156
				h8.616l-2.432,9.73h-34.766L1288.271-252.683z M1327.293-281.063c4.359,0,8.617-0.912,11.455-3.749
				c1.925-1.926,3.04-4.662,3.04-8.514c0-4.155-2.13-7.095-9.123-7.095h-6.284l-4.865,19.359H1327.293z"/>
			<path fill="#6D6E71" d="M1381.01-262.514c0,9.324,5.069,11.758,9.933,11.758c4.156,0,8.411-1.825,13.278-7.298l4.559,4.258
				c-5.574,6.487-12.466,11.959-23.614,11.959c-13.075,0-21.388-7.398-21.388-19.359c0-15.913,12.974-30.812,31.422-30.812
				c10.945,0,17.127,5.169,17.127,12.468C1412.328-270.116,1403.207-262.717,1381.01-262.514z M1381.517-268.089
				c12.365-0.404,15.507-6.79,15.507-11.756c0-3.345-1.519-5.271-3.953-5.271C1387.497-285.116,1382.935-276.399,1381.517-268.089z"
				/>
			<path fill="#6D6E71" d="M1426.012-281.264c-1.722,0-3.649,3.243-6.182,9.324l-5.574-2.027c4.965-11.859,9.73-18.041,17.33-18.041
				c5.779,0,9.327,4.459,9.327,11.352c0,0.913,0,1.52-0.101,2.738l0.809,0.303c4.258-10.033,11.049-14.392,17.231-14.392
				c10.237,0,14.898,6.994,14.898,17.433c0,13.176-8.614,31.623-23.614,31.623c-5.779,0-10.44-2.635-12.872-8.311l-4.055,15.71
				h8.107l-2.432,9.224h-31.419l2.432-9.224h6.284l10.44-39.528C1428.139-280.961,1426.925-281.264,1426.012-281.264z
				 M1439.695-257.751c0,4.358,1.62,7.095,4.864,7.095c6.69,0,11.556-15.407,11.556-23.515c0-5.169-2.029-7.297-4.866-7.297
				C1444.559-281.467,1439.695-267.887,1439.695-257.751z"/>
			<path fill="#6D6E71" d="M1529.797-271.94c0,16.521-14.492,30.102-29.898,30.102c-12.974,0-22.199-8.311-22.199-20.067
				c0-16.521,14.495-30.103,29.9-30.103C1520.574-292.009,1529.797-283.698,1529.797-271.94z M1507.905-285.015
				c-8.513,0-12.974,21.589-12.974,29.089c0,6.081,2.432,7.095,4.562,7.095c8.614,0,13.075-21.589,13.075-29.089
				C1512.568-284.002,1510.133-285.015,1507.905-285.015z"/>
			<path fill="#6D6E71" d="M1545.1-275.082c1.519-5.879,0.812-6.588-0.203-6.588c-1.722,0-3.953,3.649-6.588,9.73l-5.574-2.027
				c4.864-11.453,10.539-18.041,18.75-18.041c4.663,0,8.31,3.243,8.31,9.73c0,2.535-0.203,5.372-1.316,10.034l0.812,0.304
				c5.675-13.379,10.235-20.069,18.547-20.069c5.371,0,9.527,4.156,9.527,9.933c0,6.182-4.055,10.845-9.426,10.845
				c-4.258,0-8.516-2.939-8.008-8.614c-1.722,0.607-7.803,3.04-16.318,36.893h-17.026L1545.1-275.082z"/>
			<path fill="#6D6E71" d="M1613.515-281.67l-5.371,20.169c-0.406,1.42-0.71,3.446-0.71,4.461c0,3.243,1.925,4.155,3.852,4.155
				c3.548,0,6.081-3.243,8.513-10.237l5.777,2.027c-4.255,13.988-12.263,19.257-20.979,19.257c-7.501,0-14.191-3.648-14.191-12.669
				c0-2.129,0.507-5.472,1.319-8.514l5.067-18.649h-8.31l2.026-7.906h8.414l3.243-11.758l17.127-2.027l-3.649,13.785h15.002
				l-2.029,7.906H1613.515z"/>
		</g>
	</g>
	
		<rect x="441.382" y="-719.846" transform="matrix(0.9707 0.2402 -0.2402 0.9707 -152.0224 -126.205)" display="none" fill="#ED1C24" width="0.5" height="66.416"/>
</g>
<g id="Variation_1" display="none">
	<g display="inline">
		<path fill="#F43D00" d="M1045.271-253.839h8.051l11.819-47.484h-8.05l2.446-9.782h32.913c18.952,0,23.843,6.725,23.843,13.655
			c0,8.356-6.215,16.1-22.112,18.036l-0.203,0.712c11.31,1.63,16.506,6.623,16.506,13.859c0,4.687-1.528,8.966-4.89,12.431
			c-5.095,5.095-14.165,8.356-28.328,8.356h-34.441L1045.271-253.839z M1077.165-253.839c9.782,0,15.183-4.075,15.183-12.126
			c0-5.094-2.854-7.846-11.412-7.846h-4.484l-4.993,19.972H1077.165z M1084.298-283.593c8.966,0,13.449-4.483,13.449-10.699
			c0-4.585-2.343-7.031-9.68-7.031h-4.687l-4.483,17.73H1084.298z"/>
		<path fill="#F43D00" d="M1169.075-273.199c0,16.609-14.571,30.263-30.06,30.263c-13.043,0-22.315-8.356-22.315-20.175
			c0-16.609,14.571-30.264,30.059-30.264C1159.802-293.375,1169.075-285.019,1169.075-273.199z M1147.065-286.344
			c-8.56,0-13.043,21.704-13.043,29.244c0,6.113,2.446,7.133,4.585,7.133c8.662,0,13.145-21.704,13.145-29.244
			C1151.752-285.325,1149.307-286.344,1147.065-286.344z"/>
		<path fill="#F43D00" d="M1175.39-260.87l11.82-44.426h-6.725l2.344-9.274h23.945l-13.959,49.828
			c-0.51,1.732-2.446,7.642-2.446,9.476c0,1.528,0.816,1.936,1.63,1.936c1.63,0,3.567-1.324,7.031-9.68l5.604,2.037
			c-4.075,11.31-10.495,18.036-19.156,18.036c-6.725,0-11.31-3.667-11.31-10.393C1174.167-255.061,1174.575-257.813,1175.39-260.87z
			"/>
		<path fill="#F43D00" d="M1268.319-260.972c-3.769,11.718-9.782,18.036-18.138,18.036c-6.215,0-10.393-3.363-10.393-10.088
			c0-1.222,0.102-1.935,0.204-2.649l-0.816-0.306c-4.075,8.968-9.578,13.043-16.405,13.043c-10.699,0-15.284-8.152-15.284-17.118
			c0-10.496,4.687-21.398,10.291-27.003c4.382-4.381,8.356-6.317,14.266-6.317c6.521,0,10.597,4.687,12.329,9.07l5.503-20.991
			h-6.725l2.343-9.274h23.743l-14.163,54.617c-0.51,1.936-0.714,3.159-0.714,4.177c0,1.834,1.019,2.446,1.936,2.446
			c1.834,0,3.769-1.732,6.419-9.68L1268.319-260.972z M1242.234-277.988c0-5.605-2.547-6.521-4.585-6.521
			c-7.336,0-12.329,15.896-12.329,24.761c0,5.196,2.139,6.521,4.279,6.521C1236.63-253.227,1242.234-269.022,1242.234-277.988z"/>
	</g>
	<g display="inline">
		<path fill="#FFFFFF" d="M1285.029-253.839h8.051l11.819-47.484h-8.05l2.446-9.782h35.154c17.833,0,23.947,7.133,23.947,14.673
			c0,10.394-8.153,17.628-26.29,18.75l-0.204,0.611c11.207,1.324,14.978,6.013,14.978,11.005c0,3.261-1.221,7.337-1.221,9.681
			c0,2.037,1.221,2.547,2.241,2.547c1.53,0,2.751-1.12,5.196-6.113l5.504,2.853c-3.975,8.866-8.357,14.571-17.833,14.571
			c-8.152,0-13.449-3.975-13.449-10.699c0-4.484,1.935-9.477,1.935-14.267c0-3.565-2.853-5.604-8.864-5.604h-4.281l-4.789,19.258
			h8.662l-2.445,9.782h-34.951L1285.029-253.839z M1324.26-282.37c4.383,0,8.663-0.916,11.516-3.769
			c1.935-1.936,3.057-4.687,3.057-8.56c0-4.177-2.142-7.133-9.172-7.133h-6.317l-4.891,19.462H1324.26z"/>
		<path fill="#FFFFFF" d="M1378.264-263.723c0,9.374,5.096,11.82,9.986,11.82c4.178,0,8.456-1.834,13.349-7.337l4.584,4.281
			c-5.604,6.521-12.533,12.023-23.74,12.023c-13.145,0-21.502-7.438-21.502-19.462c0-15.997,13.043-30.977,31.59-30.977
			c11.003,0,17.219,5.197,17.219,12.534C1409.749-271.364,1400.579-263.927,1378.264-263.723z M1378.774-269.328
			c12.431-0.407,15.59-6.826,15.59-11.819c0-3.363-1.527-5.299-3.974-5.299C1384.785-286.446,1380.199-277.682,1378.774-269.328z"/>
		<path fill="#FFFFFF" d="M1423.505-282.573c-1.731,0-3.669,3.261-6.215,9.374l-5.604-2.038
			c4.992-11.922,9.782-18.138,17.422-18.138c5.81,0,9.377,4.483,9.377,11.412c0,0.918,0,1.528-0.102,2.752l0.813,0.305
			c4.281-10.087,11.108-14.469,17.323-14.469c10.292,0,14.978,7.031,14.978,17.526c0,13.247-8.66,31.792-23.74,31.792
			c-5.81,0-10.496-2.649-12.941-8.356l-4.077,15.794h8.15l-2.445,9.274h-31.587l2.445-9.274h6.317l10.496-39.739
			C1425.644-282.268,1424.423-282.573,1423.505-282.573z M1437.262-258.934c0,4.381,1.629,7.133,4.89,7.133
			c6.725,0,11.618-15.489,11.618-23.641c0-5.197-2.04-7.336-4.892-7.336C1442.152-282.777,1437.262-269.124,1437.262-258.934z"/>
		<path fill="#FFFFFF" d="M1527.845-273.199c0,16.609-14.57,30.263-30.057,30.263c-13.043,0-22.318-8.356-22.318-20.175
			c0-16.609,14.573-30.264,30.06-30.264C1518.573-293.375,1527.845-285.019,1527.845-273.199z M1505.836-286.344
			c-8.558,0-13.043,21.704-13.043,29.244c0,6.113,2.445,7.133,4.586,7.133c8.66,0,13.145-21.704,13.145-29.244
			C1510.524-285.325,1508.077-286.344,1505.836-286.344z"/>
		<path fill="#FFFFFF" d="M1543.23-276.357c1.527-5.911,0.816-6.623-0.204-6.623c-1.731,0-3.975,3.669-6.623,9.782l-5.604-2.038
			c4.89-11.514,10.595-18.138,18.85-18.138c4.688,0,8.354,3.261,8.354,9.782c0,2.548-0.204,5.401-1.323,10.088l0.816,0.306
			c5.705-13.451,10.289-20.176,18.646-20.176c5.4,0,9.578,4.179,9.578,9.986c0,6.215-4.077,10.903-9.476,10.903
			c-4.281,0-8.561-2.955-8.051-8.66c-1.731,0.611-7.844,3.057-16.406,37.09h-17.117L1543.23-276.357z"/>
		<path fill="#FFFFFF" d="M1612.011-282.981l-5.4,20.277c-0.408,1.428-0.714,3.465-0.714,4.484c0,3.261,1.935,4.177,3.873,4.177
			c3.567,0,6.113-3.261,8.558-10.292l5.807,2.038c-4.278,14.063-12.329,19.36-21.091,19.36c-7.541,0-14.266-3.667-14.266-12.737
			c0-2.14,0.51-5.502,1.326-8.56l5.094-18.748h-8.354l2.037-7.948h8.459l3.261-11.82l17.219-2.038l-3.669,13.859h15.083l-2.04,7.948
			H1612.011z"/>
	</g>
	<g display="inline">
		<path fill="#FFFFFF" d="M1063.825-327.086h6.334l7.96-31.839h-6.614c-3.756,0-4.261,1.681-7.512,10.09h-1.794l3.083-12.332h30.719
			l-3.084,12.332h-1.681c0.896-8.409,1.065-10.09-2.691-10.09h-6.502l-7.96,31.839h6.446l-0.561,2.242h-16.704L1063.825-327.086z"/>
		<path fill="#FFFFFF" d="M1109.787-329.161c0.056-4.596,4.204-10.818,4.204-15.583c0-1.065-0.448-2.523-2.354-2.523
			c-3.531,0-9.53,6.334-13.902,22.422h-3.755l9.585-36.323h-5.325l0.561-2.186h8.856l-6.67,24.552l0.392,0.168
			c3.643-7.456,7.847-11.547,11.659-11.547c2.634,0,4.596,1.905,4.596,5.381c0,4.876-4.372,12.219-4.372,16.199
			c0,0.616,0.168,1.57,1.234,1.57c1.401,0,2.97-2.466,4.484-6.614l1.514,0.504c-2.523,7.008-4.653,8.802-7.008,8.802
			C1111.412-324.339,1109.731-326.022,1109.787-329.161z"/>
		<path fill="#FFFFFF" d="M1127.161-335.215c-0.057,0.505-0.057,1.065-0.057,1.514c0,4.708,2.075,7.175,5.326,7.175
			s5.886-2.019,8.521-5.718l1.344,0.953c-2.69,3.867-5.941,6.951-10.65,6.951c-4.933,0-8.24-3.252-8.24-8.913
			c0-8.689,8.016-16.929,14.798-16.929c3.812,0,5.886,2.298,5.886,4.933C1144.089-340.203,1138.764-336.616,1127.161-335.215z
			 M1127.441-336.84c10.594-1.401,13.228-4.989,13.228-8.297c0-2.018-1.344-3.195-3.251-3.195
			C1132.654-348.332,1128.618-342.334,1127.441-336.84z"/>
	</g>
</g>
<g id="Variation_2">
	<path fill="#F43D00" d="M88.395,361.897h37.945l55.703-223.794h-37.939L155.634,92h155.119c89.323,0,112.374,31.697,112.374,64.355
		c0,39.381-29.294,75.877-104.216,85.003l-0.955,3.358c53.306,7.684,77.794,31.216,77.794,65.316
		c0,22.09-7.203,42.258-23.045,58.587C348.692,392.632,305.947,408,239.195,408H76.873L88.395,361.897z M238.715,361.897
		c46.103,0,71.558-19.206,71.558-57.152c0-24.006-13.452-36.977-53.787-36.977H235.35l-23.532,94.129H238.715z M272.334,221.665
		c42.258,0,63.387-21.129,63.387-50.423c0-21.61-11.042-33.139-45.623-33.139h-22.09l-21.129,83.561H272.334z"/>
</g>
</svg>
